<svg width="26" height="25" viewBox="0 0 26 25" fill="none" xmlns="http://www.w3.org/2000/svg">
<path d="M6.98295 19.3982C5.64213 19.2703 4.63768 18.8798 3.96404 18.2266C2.75578 17.0551 2.75578 15.1694 2.75578 11.3982V10.8982C2.75578 7.12695 2.75578 5.24134 3.96404 4.06976C5.17231 2.89819 7.11697 2.89819 11.0063 2.89819H15.1316C19.0209 2.89819 20.9656 2.89819 22.1738 4.06976C23.3821 5.24134 23.3821 7.12695 23.3821 10.8982V11.3982C23.3821 15.1694 23.3821 17.0551 22.1738 18.2266C20.9656 19.3982 19.0209 19.3982 15.1316 19.3982C14.5535 19.4107 14.0931 19.4533 13.6409 19.5532C12.405 19.8291 11.2605 20.4423 10.1296 20.9771C8.51804 21.739 7.71229 22.12 7.20662 21.7633C6.23925 21.0647 7.18481 18.9001 7.3967 17.8982" stroke="#808080" stroke-width="1.5" stroke-linecap="round"/>
</svg>
